Coordinates
version=1
nRows=7
nColumns=63
inDegrees=yes

Units are S.I. units (second, meters, Newtons, ...)
If the header above contains a line with 'inDegrees', this indicates whether rotational values are in degrees (yes) or radians (no).

endheader
time	pelvis_tilt	pelvis_list	pelvis_rotation	pelvis_tx	pelvis_ty	pelvis_tz	hip_flexion_r	hip_adduction_r	hip_rotation_r	knee_angle_r	knee_angle_r_beta	ankle_angle_r	subtalar_angle_r	mtp_angle_r	hip_flexion_l	hip_adduction_l	hip_rotation_l	knee_angle_l	knee_angle_l_beta	ankle_angle_l	subtalar_angle_l	mtp_angle_l	L5_S1_Flex_Ext	L5_S1_Lat_Bending	L5_S1_axial_rotation	L4_L5_Flex_Ext	L4_L5_Lat_Bending	L4_L5_axial_rotation	L3_L4_Flex_Ext	L3_L4_Lat_Bending	L3_L4_axial_rotation	L2_L3_Flex_Ext	L2_L3_Lat_Bending	L2_L3_axial_rotation	L1_L2_Flex_Ext	L1_L2_Lat_Bending	L1_L2_axial_rotation	L1_T12_Flex_Ext	L1_T12_Lat_Bending	L1_T12_axial_rotation	Abs_r3	Abs_r2	Abs_r1	Abs_t1	Abs_t2	neck_flexion	neck_bending	neck_rotation	arm_flex_r	arm_add_r	arm_rot_r	elbow_flex_r	pro_sup_r	wrist_flex_r	wrist_dev_r	arm_flex_l	arm_add_l	arm_rot_l	elbow_flex_l	pro_sup_l	wrist_flex_l	wrist_dev_l
      1.21666667	     -1.09064258	      2.29618054	     83.21418940	      0.13271981	      0.98748384	      0.42849405	     -3.39114479	      4.34387573	      9.40747279	      0.68823624	      0.01201199	     16.53067173	    -15.54068119	      0.00000000	     -3.23704288	     -3.12237126	    -13.11710685	      3.72726892	      0.06505311	     28.55544899	     15.56932437	      0.00000000	     -0.22119138	      0.13127750	     -0.39234200	     -0.41077451	      0.17459908	     -0.41686337	     -0.36339532	      0.31918812	     -0.41686337	     -0.25279963	      0.31918812	     -0.34329925	     -0.20539831	      0.26770108	     -0.31877787	     -0.12638875	      0.20334885	     -0.29425650	     -1.57994790	      1.48503737	     -2.18208848	      0.00000000	      0.00000000	     15.30724418	      6.63955462	     -7.75952902	     77.33012422	    -30.16390144	     12.38950242	    102.27314841	     83.98180009	    -17.29330773	     -1.65783570	     82.62504416	    -28.15699153	     24.14657688	     96.39255747	     88.18943024	    -31.68633405	    -14.28190474
      1.23333333	     -1.18662495	      2.35448896	     83.02682955	      0.13338304	      0.98762239	      0.42704918	     -3.58688962	      4.23215562	      9.53660380	      0.66693156	      0.01164015	     16.41334605	    -15.57526435	      0.00000000	     -3.54246126	     -2.98025134	    -12.90371636	      3.46347377	      0.06044902	     28.45388778	     15.61073647	      0.00000000	     -0.15980135	      0.11667633	     -0.12682009	     -0.29676708	      0.15517952	     -0.13474635	     -0.26253763	      0.28368684	     -0.13474635	     -0.18263696	      0.28368684	     -0.11096758	     -0.14839153	      0.23792638	     -0.10304133	     -0.09131049	      0.18073164	     -0.09511507	     -1.14144505	      1.31986601	     -0.70533531	      0.00000000	      0.00000000	     14.20279794	      6.31135883	     -8.59524100	     75.20235085	    -31.19719577	      8.86703700	    102.59939201	     82.18147974	    -19.39503989	      0.12322531	     80.11558240	    -25.69722025	     20.07954645	     96.10880099	     87.96581471	    -29.14331462	    -13.28884984
      1.25000000	     -1.17474321	      2.71647310	     82.83618256	      0.13382118	      0.98786990	      0.42606442	     -4.08176691	      4.18280300	      9.78186302	      0.65123350	      0.01136617	     16.53395626	    -15.58491306	      0.00000000	     -4.07317243	     -2.91912301	    -12.69580033	      3.39334727	      0.05922508	     28.57704635	     15.36766844	      0.00000000	     -0.12412126	      0.11622417	      0.04737252	     -0.23050560	      0.15457814	      0.05033331	     -0.20391882	      0.28258744	      0.05033331	     -0.14185819	      0.28258744	      0.04145096	     -0.11525901	      0.23700432	      0.03849018	     -0.07092289	      0.18003123	      0.03552939	     -0.88658577	      1.31475100	      0.26347177	      0.00000000	      0.00000000	     12.46975513	      5.87778133	     -9.09424231	     73.09830849	    -31.67494219	      6.16900105	    101.84353105	     80.64557281	    -22.07794735	      1.45497646	     76.72458128	    -23.56814375	     15.10307810	     96.07836355	     87.59239918	    -22.21406732	    -11.33391630
      1.26666667	     -1.12729017	      2.93894696	     82.79109321	      0.13382060	      0.98794131	      0.42489708	     -4.43741149	      4.18087280	      9.86275821	      0.63027753	      0.01100042	     16.80182719	    -15.47597615	      0.00000000	     -4.47260435	     -2.90864523	    -12.45990310	      3.26309303	      0.05695172	     28.73770299	     15.07700414	      0.00000000	     -0.03157341	      0.12735515	      0.09158714	     -0.05863497	      0.16938235	      0.09731133	     -0.05187195	      0.30965132	      0.09731133	     -0.03608525	      0.30965132	      0.08013874	     -0.02931907	      0.25970263	      0.07441455	     -0.01804104	      0.19727313	      0.06869035	     -0.22552569	      1.44066695	      0.50938018	      0.00000000	      0.00000000	      9.58171196	      5.50605696	     -8.86796824	     70.58333223	    -31.34940223	      3.77690304	    100.18658991	     79.63230031	    -23.63647841	      1.77245959	     72.81597141	    -22.17958425	     10.91872572	     96.31641701	     86.16630064	    -17.33960989	     -9.66089301
      1.28333333	     -1.05432610	      3.32857354	     82.91578925	      0.13338531	      0.98820992	      0.42460532	     -4.91772033	      4.17852297	      9.98356648	      0.61220393	      0.01068497	     17.02608001	    -15.41449959	      0.00000000	     -4.88082047	     -2.94987265	    -12.44981316	      3.35378535	      0.05853460	     28.97371474	     14.97715492	      0.00000000	      0.01904136	      0.12732746	      0.09230434	      0.03536171	      0.16934552	      0.09807336	      0.03128305	      0.30958399	      0.09807336	      0.02176237	      0.30958399	      0.08076629	      0.01768180	      0.25964616	      0.07499727	      0.01088023	      0.19723024	      0.06922825	      0.13601051	      1.44035371	      0.51336902	      0.00000000	      0.00000000	      6.41354496	      5.63082671	     -9.03431348	     67.74044442	    -30.67951023	      1.08602714	     98.27158872	     79.05315691	    -24.52727489	      1.82897162	     69.30759017	    -20.88848448	      8.36869657	     96.23905859	     83.75724334	    -16.84208190	     -9.31724901
      1.30000000	     -1.09936659	      3.27547274	     83.11074031	      0.13310977	      0.98775482	      0.42449077	     -4.88221417	      4.16164670	      9.76405113	      0.61391815	      0.01071489	     17.44885091	    -15.31795717	      0.00000000	     -4.80152762	     -2.93589204	    -12.27259774	      3.37831900	      0.05896279	     29.02021926	     14.59432650	      0.00000000	      0.12680071	      0.13297826	      0.03675726	      0.23548159	      0.17686109	      0.03905459	      0.20832088	      0.32332334	      0.03905459	      0.14492053	      0.32332334	      0.03216260	      0.11774714	      0.27116927	      0.02986527	      0.07245392	      0.20598333	      0.02756794	      0.90572478	      1.50427668	      0.20443283	      0.00000000	      0.00000000	      3.03383082	      5.24775498	     -8.12600799	     64.80029180	    -29.51425476	     -1.52424989	     96.16198253	     78.68017063	    -23.11001465	      0.50407875	     65.46918868	    -20.49084734	      5.91556655	     96.54758476	     75.63827063	    -12.72469051	     -9.86455140
      1.31666667	     -1.02748581	      3.37909129	     83.46864506	      0.13221224	      0.98732689	      0.42536782	     -4.96675946	      4.24316946	      9.36243190	      0.61604582	      0.01075203	     17.65747189	    -15.21159436	      0.00000000	     -4.77472811	     -3.02982560	    -11.82048522	      3.49783126	      0.06104867	     29.08935540	     14.06042294	      0.00000000	      0.15889583	      0.16490435	     -0.03896654	      0.29508545	      0.21932279	     -0.04140195	      0.26104997	      0.40094844	     -0.04140195	      0.18160205	      0.40094844	     -0.03409572	      0.14755067	      0.33627296	     -0.03166031	      0.09079308	      0.25543684	     -0.02922490	      1.13497706	      1.86543103	     -0.21672019	      0.00000000	      0.00000000	      0.36999672	      4.86169013	     -6.52697056	     62.36538126	    -27.83019397	     -4.41187600	     93.97721865	     79.29947089	    -20.45592480	     -0.19197584	     62.14811014	    -20.26726961	      4.95096891	     96.58585965	     67.97547981	    -13.62142719	    -12.88570032
